<mxfile host="app.diagrams.net" modified="2022-07-26T22:13:09.827Z" agent="5.0 (Windows)" etag="MPmb1WiJPptzUkAY5D2a" version="20.2.0" type="github" pages="3">
  <diagram id="0bSmpJjXT4QHC9Z0yinY" name="AnÃ¡lisis">
    <mxGraphModel dx="2746" dy="1056" grid="1" gridSize="10" guides="1" tooltips="1" connect="1" arrows="1" fold="1" page="1" pageScale="1" pageWidth="850" pageHeight="1100" math="0" shadow="0">
      <root>
        <mxCell id="0" />
        <mxCell id="1" parent="0" />
        <mxCell id="-irWWOzhihdXzqLK1Ein-56" value="" style="rounded=1;whiteSpace=wrap;html=1;fontSize=20;fillColor=#f5f5f5;fontColor=#333333;strokeColor=#666666;" parent="1" vertex="1">
          <mxGeometry x="180" y="340" width="610" height="530" as="geometry" />
        </mxCell>
        <mxCell id="-irWWOzhihdXzqLK1Ein-37" value="" style="rounded=1;whiteSpace=wrap;html=1;fontSize=20;" parent="1" vertex="1">
          <mxGeometry x="-240" y="1030" width="870" height="530" as="geometry" />
        </mxCell>
        <mxCell id="-irWWOzhihdXzqLK1Ein-1" value="&lt;font style=&quot;font-size: 30px;&quot;&gt;Domain: (Restaurat) Selling food&lt;br&gt;&lt;/font&gt;" style="text;html=1;strokeColor=none;fillColor=none;align=center;verticalAlign=middle;whiteSpace=wrap;rounded=0;" parent="1" vertex="1">
          <mxGeometry x="116" y="290" width="617.5" height="30" as="geometry" />
        </mxCell>
        <mxCell id="-irWWOzhihdXzqLK1Ein-2" value="" style="ellipse;whiteSpace=wrap;html=1;fontSize=30;dashed=1;" parent="1" vertex="1">
          <mxGeometry x="211.25" y="350" width="240" height="270" as="geometry" />
        </mxCell>
        <mxCell id="-irWWOzhihdXzqLK1Ein-3" value="" style="ellipse;whiteSpace=wrap;html=1;fontSize=30;dashed=1;" parent="1" vertex="1">
          <mxGeometry x="486.25" y="380" width="280" height="220" as="geometry" />
        </mxCell>
        <mxCell id="-irWWOzhihdXzqLK1Ein-4" value="" style="ellipse;whiteSpace=wrap;html=1;fontSize=30;dashed=1;" parent="1" vertex="1">
          <mxGeometry x="220" y="660" width="222.5" height="180" as="geometry" />
        </mxCell>
        <mxCell id="-irWWOzhihdXzqLK1Ein-5" value="&lt;font style=&quot;font-size: 20px;&quot;&gt;Food&lt;/font&gt;" style="text;html=1;strokeColor=none;fillColor=none;align=center;verticalAlign=middle;whiteSpace=wrap;rounded=0;dashed=1;fontSize=30;" parent="1" vertex="1">
          <mxGeometry x="305" y="380" width="60" height="30" as="geometry" />
        </mxCell>
        <mxCell id="-irWWOzhihdXzqLK1Ein-6" value="&lt;font style=&quot;font-size: 20px;&quot;&gt;C&lt;/font&gt;&lt;font style=&quot;font-size: 20px;&quot;&gt;&lt;span class=&quot;VIiyi&quot; lang=&quot;en&quot;&gt;&lt;span data-number-of-phrases=&quot;1&quot; data-phrase-index=&quot;0&quot; data-language-to-translate-into=&quot;es&quot; data-language-for-alternatives=&quot;en&quot; class=&quot;JLqJ4b ChMk0b&quot;&gt;&lt;span class=&quot;Q4iAWc&quot;&gt;ustomer service&lt;/span&gt;&lt;/span&gt;&lt;/span&gt;&lt;/font&gt;" style="text;html=1;strokeColor=none;fillColor=none;align=center;verticalAlign=middle;whiteSpace=wrap;rounded=0;dashed=1;fontSize=30;" parent="1" vertex="1">
          <mxGeometry x="187.5" y="760" width="295" height="30" as="geometry" />
        </mxCell>
        <mxCell id="Ue44cO6_rPKiA-cW_K2B-14" style="edgeStyle=orthogonalEdgeStyle;curved=1;orthogonalLoop=1;jettySize=auto;html=1;endArrow=none;endFill=0;" edge="1" parent="1" source="-irWWOzhihdXzqLK1Ein-8" target="-irWWOzhihdXzqLK1Ein-63">
          <mxGeometry relative="1" as="geometry" />
        </mxCell>
        <mxCell id="-irWWOzhihdXzqLK1Ein-8" value="&lt;span class=&quot;VIiyi&quot; lang=&quot;en&quot;&gt;&lt;span data-number-of-phrases=&quot;1&quot; data-phrase-index=&quot;0&quot; data-language-to-translate-into=&quot;es&quot; data-language-for-alternatives=&quot;en&quot; class=&quot;JLqJ4b ChMk0b&quot;&gt;&lt;span class=&quot;Q4iAWc&quot;&gt;Kitchen [core]&lt;br&gt;&lt;/span&gt;&lt;/span&gt;&lt;/span&gt;" style="ellipse;whiteSpace=wrap;html=1;fontSize=20;fillColor=#f8cecc;strokeColor=#b85450;" parent="1" vertex="1">
          <mxGeometry x="277.5" y="440" width="137.5" height="115" as="geometry" />
        </mxCell>
        <mxCell id="-irWWOzhihdXzqLK1Ein-10" value="Advertisement" style="ellipse;whiteSpace=wrap;html=1;fontSize=20;" parent="1" vertex="1">
          <mxGeometry x="526.25" y="427.5" width="180" height="125" as="geometry" />
        </mxCell>
        <mxCell id="-irWWOzhihdXzqLK1Ein-11" value="&lt;font style=&quot;font-size: 20px;&quot;&gt;Marketing&lt;/font&gt;" style="text;html=1;strokeColor=none;fillColor=none;align=center;verticalAlign=middle;whiteSpace=wrap;rounded=0;dashed=1;fontSize=30;" parent="1" vertex="1">
          <mxGeometry x="566.25" y="390" width="120" height="20" as="geometry" />
        </mxCell>
        <mxCell id="-irWWOzhihdXzqLK1Ein-13" value="" style="ellipse;whiteSpace=wrap;html=1;fontSize=30;dashed=1;" parent="1" vertex="1">
          <mxGeometry x="465" y="620" width="305" height="240" as="geometry" />
        </mxCell>
        <mxCell id="Ue44cO6_rPKiA-cW_K2B-15" style="edgeStyle=orthogonalEdgeStyle;curved=1;orthogonalLoop=1;jettySize=auto;html=1;entryX=1;entryY=0.5;entryDx=0;entryDy=0;endArrow=none;endFill=0;" edge="1" parent="1" source="-irWWOzhihdXzqLK1Ein-15" target="-irWWOzhihdXzqLK1Ein-63">
          <mxGeometry relative="1" as="geometry" />
        </mxCell>
        <mxCell id="Ue44cO6_rPKiA-cW_K2B-16" style="edgeStyle=orthogonalEdgeStyle;curved=1;orthogonalLoop=1;jettySize=auto;html=1;entryX=1;entryY=1;entryDx=0;entryDy=0;endArrow=none;endFill=0;" edge="1" parent="1" source="-irWWOzhihdXzqLK1Ein-15" target="-irWWOzhihdXzqLK1Ein-8">
          <mxGeometry relative="1" as="geometry" />
        </mxCell>
        <mxCell id="Ue44cO6_rPKiA-cW_K2B-17" style="edgeStyle=orthogonalEdgeStyle;curved=1;orthogonalLoop=1;jettySize=auto;html=1;endArrow=none;endFill=0;" edge="1" parent="1" source="-irWWOzhihdXzqLK1Ein-15" target="-irWWOzhihdXzqLK1Ein-10">
          <mxGeometry relative="1" as="geometry" />
        </mxCell>
        <mxCell id="-irWWOzhihdXzqLK1Ein-15" value="Adminitration" style="ellipse;whiteSpace=wrap;html=1;fontSize=20;" parent="1" vertex="1">
          <mxGeometry x="550" y="650" width="140" height="90" as="geometry" />
        </mxCell>
        <mxCell id="-irWWOzhihdXzqLK1Ein-19" value="&lt;font style=&quot;font-size: 20px;&quot;&gt;Human Resources&lt;br&gt;&lt;/font&gt;" style="text;html=1;strokeColor=none;fillColor=none;align=center;verticalAlign=middle;whiteSpace=wrap;rounded=0;dashed=1;fontSize=30;" parent="1" vertex="1">
          <mxGeometry x="512.5" y="750" width="210" height="20" as="geometry" />
        </mxCell>
        <mxCell id="Ue44cO6_rPKiA-cW_K2B-35" style="edgeStyle=orthogonalEdgeStyle;curved=1;orthogonalLoop=1;jettySize=auto;html=1;entryX=0;entryY=1;entryDx=0;entryDy=0;endArrow=none;endFill=0;" edge="1" parent="1" source="-irWWOzhihdXzqLK1Ein-21" target="-irWWOzhihdXzqLK1Ein-24">
          <mxGeometry relative="1" as="geometry" />
        </mxCell>
        <mxCell id="-irWWOzhihdXzqLK1Ein-21" value="Foods" style="ellipse;whiteSpace=wrap;html=1;fontSize=20;fillColor=#fff2cc;strokeColor=#d6b656;" parent="1" vertex="1">
          <mxGeometry x="-240" y="1250" width="120" height="90" as="geometry" />
        </mxCell>
        <mxCell id="Ue44cO6_rPKiA-cW_K2B-23" style="edgeStyle=orthogonalEdgeStyle;curved=1;orthogonalLoop=1;jettySize=auto;html=1;endArrow=none;endFill=0;" edge="1" parent="1" source="-irWWOzhihdXzqLK1Ein-22" target="Ue44cO6_rPKiA-cW_K2B-22">
          <mxGeometry relative="1" as="geometry" />
        </mxCell>
        <mxCell id="-irWWOzhihdXzqLK1Ein-22" value="cook(chef)" style="ellipse;whiteSpace=wrap;html=1;fontSize=20;fillColor=#fff2cc;strokeColor=#d6b656;" parent="1" vertex="1">
          <mxGeometry x="91.25" y="1340" width="120" height="90" as="geometry" />
        </mxCell>
        <mxCell id="-irWWOzhihdXzqLK1Ein-24" value="Recipe" style="ellipse;whiteSpace=wrap;html=1;fontSize=20;fillColor=#f8cecc;strokeColor=#b85450;" parent="1" vertex="1">
          <mxGeometry x="-200" y="1080" width="120" height="90" as="geometry" />
        </mxCell>
        <mxCell id="-irWWOzhihdXzqLK1Ein-36" value="&lt;span class=&quot;VIiyi&quot; lang=&quot;en&quot;&gt;&lt;span data-number-of-phrases=&quot;1&quot; data-phrase-index=&quot;0&quot; data-language-to-translate-into=&quot;es&quot; data-language-for-alternatives=&quot;en&quot; class=&quot;JLqJ4b ChMk0b&quot;&gt;&lt;span class=&quot;Q4iAWc&quot;&gt;Kitchen &lt;/span&gt;&lt;/span&gt;&lt;/span&gt;" style="text;html=1;align=center;verticalAlign=middle;resizable=0;points=[];autosize=1;strokeColor=none;fillColor=none;fontSize=20;" parent="1" vertex="1">
          <mxGeometry x="-210" y="990" width="90" height="40" as="geometry" />
        </mxCell>
        <mxCell id="-irWWOzhihdXzqLK1Ein-38" value="" style="rounded=1;whiteSpace=wrap;html=1;fontSize=20;" parent="1" vertex="1">
          <mxGeometry x="690" y="1040" width="560" height="390" as="geometry" />
        </mxCell>
        <mxCell id="-irWWOzhihdXzqLK1Ein-39" value="Ventas" style="text;html=1;align=center;verticalAlign=middle;resizable=0;points=[];autosize=1;strokeColor=none;fillColor=none;fontSize=20;" parent="1" vertex="1">
          <mxGeometry x="720" y="1000" width="80" height="40" as="geometry" />
        </mxCell>
        <mxCell id="-irWWOzhihdXzqLK1Ein-42" value="Advertisement" style="text;html=1;align=center;verticalAlign=middle;resizable=0;points=[];autosize=1;strokeColor=none;fillColor=none;fontSize=20;" parent="1" vertex="1">
          <mxGeometry x="1920" y="980" width="150" height="40" as="geometry" />
        </mxCell>
        <mxCell id="-irWWOzhihdXzqLK1Ein-43" value="" style="rounded=1;whiteSpace=wrap;html=1;fontSize=20;" parent="1" vertex="1">
          <mxGeometry x="1900" y="1040" width="560" height="390" as="geometry" />
        </mxCell>
        <mxCell id="-irWWOzhihdXzqLK1Ein-44" value="Adminitration" style="text;html=1;align=center;verticalAlign=middle;resizable=0;points=[];autosize=1;strokeColor=none;fillColor=none;fontSize=20;" parent="1" vertex="1">
          <mxGeometry x="1310" y="990" width="140" height="40" as="geometry" />
        </mxCell>
        <mxCell id="-irWWOzhihdXzqLK1Ein-45" value="" style="rounded=1;whiteSpace=wrap;html=1;fontSize=20;" parent="1" vertex="1">
          <mxGeometry x="1300" y="1040" width="560" height="390" as="geometry" />
        </mxCell>
        <mxCell id="-irWWOzhihdXzqLK1Ein-46" value="Waiter" style="ellipse;whiteSpace=wrap;html=1;fontSize=20;" parent="1" vertex="1">
          <mxGeometry x="670" y="1460" width="120" height="60" as="geometry" />
        </mxCell>
        <mxCell id="-irWWOzhihdXzqLK1Ein-47" value="Cashier" style="ellipse;whiteSpace=wrap;html=1;fontSize=20;" parent="1" vertex="1">
          <mxGeometry x="855" y="1550" width="120" height="60" as="geometry" />
        </mxCell>
        <mxCell id="-irWWOzhihdXzqLK1Ein-48" value="Table" style="ellipse;whiteSpace=wrap;html=1;fontSize=20;" parent="1" vertex="1">
          <mxGeometry x="862.5" y="1630" width="120" height="60" as="geometry" />
        </mxCell>
        <mxCell id="-irWWOzhihdXzqLK1Ein-49" value="Web Site" style="ellipse;whiteSpace=wrap;html=1;fontSize=20;" parent="1" vertex="1">
          <mxGeometry x="1100" y="1540" width="120" height="90" as="geometry" />
        </mxCell>
        <mxCell id="-irWWOzhihdXzqLK1Ein-50" value="Social Manager" style="ellipse;whiteSpace=wrap;html=1;fontSize=20;" parent="1" vertex="1">
          <mxGeometry x="855" y="1465" width="230" height="60" as="geometry" />
        </mxCell>
        <mxCell id="-irWWOzhihdXzqLK1Ein-51" value="Room" style="ellipse;whiteSpace=wrap;html=1;fontSize=20;" parent="1" vertex="1">
          <mxGeometry x="715" y="1620" width="120" height="60" as="geometry" />
        </mxCell>
        <mxCell id="-irWWOzhihdXzqLK1Ein-52" value="Chair" style="ellipse;whiteSpace=wrap;html=1;fontSize=20;" parent="1" vertex="1">
          <mxGeometry x="975" y="1555" width="120" height="60" as="geometry" />
        </mxCell>
        <mxCell id="Ue44cO6_rPKiA-cW_K2B-36" style="edgeStyle=orthogonalEdgeStyle;curved=1;orthogonalLoop=1;jettySize=auto;html=1;entryX=1;entryY=1;entryDx=0;entryDy=0;endArrow=none;endFill=0;" edge="1" parent="1" source="-irWWOzhihdXzqLK1Ein-54" target="-irWWOzhihdXzqLK1Ein-24">
          <mxGeometry relative="1" as="geometry" />
        </mxCell>
        <mxCell id="-irWWOzhihdXzqLK1Ein-54" value="Burger" style="ellipse;whiteSpace=wrap;html=1;fontSize=20;fillColor=#fff2cc;strokeColor=#d6b656;" parent="1" vertex="1">
          <mxGeometry x="-28.75" y="1240" width="120" height="90" as="geometry" />
        </mxCell>
        <mxCell id="Ue44cO6_rPKiA-cW_K2B-34" style="edgeStyle=orthogonalEdgeStyle;curved=1;orthogonalLoop=1;jettySize=auto;html=1;endArrow=none;endFill=0;" edge="1" parent="1" source="-irWWOzhihdXzqLK1Ein-55" target="-irWWOzhihdXzqLK1Ein-24">
          <mxGeometry relative="1" as="geometry" />
        </mxCell>
        <mxCell id="-irWWOzhihdXzqLK1Ein-55" value="Vegetarian burger" style="ellipse;whiteSpace=wrap;html=1;fontSize=20;fillColor=#fff2cc;strokeColor=#d6b656;" parent="1" vertex="1">
          <mxGeometry x="-148.75" y="1330" width="120" height="90" as="geometry" />
        </mxCell>
        <mxCell id="-irWWOzhihdXzqLK1Ein-57" value="Security" style="ellipse;whiteSpace=wrap;html=1;fontSize=20;" parent="1" vertex="1">
          <mxGeometry x="1090" y="1470" width="120" height="60" as="geometry" />
        </mxCell>
        <mxCell id="-irWWOzhihdXzqLK1Ein-58" value="Supervisor" style="ellipse;whiteSpace=wrap;html=1;fontSize=20;" parent="1" vertex="1">
          <mxGeometry x="686.25" y="1540" width="120" height="60" as="geometry" />
        </mxCell>
        <mxCell id="Ue44cO6_rPKiA-cW_K2B-24" style="edgeStyle=orthogonalEdgeStyle;curved=1;orthogonalLoop=1;jettySize=auto;html=1;endArrow=none;endFill=0;" edge="1" parent="1" source="-irWWOzhihdXzqLK1Ein-59" target="Ue44cO6_rPKiA-cW_K2B-22">
          <mxGeometry relative="1" as="geometry" />
        </mxCell>
        <mxCell id="-irWWOzhihdXzqLK1Ein-59" value="&lt;span class=&quot;VIiyi&quot; lang=&quot;en&quot;&gt;&lt;span data-number-of-phrases=&quot;1&quot; data-phrase-index=&quot;0&quot; data-language-to-translate-into=&quot;es&quot; data-language-for-alternatives=&quot;en&quot; class=&quot;JLqJ4b ChMk0b&quot;&gt;&lt;span class=&quot;Q4iAWc&quot;&gt;chef&#39;s assistant&lt;/span&gt;&lt;/span&gt;&lt;/span&gt;" style="ellipse;whiteSpace=wrap;html=1;fontSize=20;fillColor=#fff2cc;strokeColor=#d6b656;" parent="1" vertex="1">
          <mxGeometry x="180" y="1455" width="133.75" height="80" as="geometry" />
        </mxCell>
        <mxCell id="-irWWOzhihdXzqLK1Ein-63" value="Ventas" style="ellipse;whiteSpace=wrap;html=1;fontSize=20;" parent="1" vertex="1">
          <mxGeometry x="277.5" y="670" width="95" height="90" as="geometry" />
        </mxCell>
        <mxCell id="Ue44cO6_rPKiA-cW_K2B-1" style="edgeStyle=orthogonalEdgeStyle;rounded=0;orthogonalLoop=1;jettySize=auto;html=1;exitX=0.5;exitY=1;exitDx=0;exitDy=0;" edge="1" parent="1" source="-irWWOzhihdXzqLK1Ein-6" target="-irWWOzhihdXzqLK1Ein-6">
          <mxGeometry relative="1" as="geometry" />
        </mxCell>
        <mxCell id="Ue44cO6_rPKiA-cW_K2B-18" value="Ollas" style="ellipse;whiteSpace=wrap;html=1;fontSize=20;fillColor=#dae8fc;strokeColor=#6c8ebf;" vertex="1" parent="1">
          <mxGeometry x="686.25" y="1110" width="120" height="90" as="geometry" />
        </mxCell>
        <mxCell id="Ue44cO6_rPKiA-cW_K2B-22" value="Personal" style="ellipse;whiteSpace=wrap;html=1;fontSize=20;fillColor=#f8cecc;strokeColor=#b85450;" vertex="1" parent="1">
          <mxGeometry x="140" y="1070" width="120" height="90" as="geometry" />
        </mxCell>
        <mxCell id="Ue44cO6_rPKiA-cW_K2B-32" style="edgeStyle=orthogonalEdgeStyle;curved=1;orthogonalLoop=1;jettySize=auto;html=1;endArrow=none;endFill=0;" edge="1" parent="1" source="Ue44cO6_rPKiA-cW_K2B-31" target="Ue44cO6_rPKiA-cW_K2B-22">
          <mxGeometry relative="1" as="geometry" />
        </mxCell>
        <mxCell id="Ue44cO6_rPKiA-cW_K2B-31" value="&lt;span class=&quot;VIiyi&quot; lang=&quot;en&quot;&gt;&lt;span data-number-of-phrases=&quot;1&quot; data-phrase-index=&quot;0&quot; data-language-to-translate-into=&quot;es&quot; data-language-for-alternatives=&quot;en&quot; class=&quot;JLqJ4b ChMk0b&quot;&gt;&lt;span class=&quot;Q4iAWc&quot;&gt;Dishwasher&lt;/span&gt;&lt;/span&gt;&lt;/span&gt;" style="ellipse;whiteSpace=wrap;html=1;fontSize=20;fillColor=#fff2cc;strokeColor=#d6b656;" vertex="1" parent="1">
          <mxGeometry x="258.13" y="1360" width="133.75" height="80" as="geometry" />
        </mxCell>
        <mxCell id="Ue44cO6_rPKiA-cW_K2B-33" value="Hornallas" style="ellipse;whiteSpace=wrap;html=1;fontSize=20;fillColor=#dae8fc;strokeColor=#6c8ebf;" vertex="1" parent="1">
          <mxGeometry x="670" y="1200" width="120" height="90" as="geometry" />
        </mxCell>
        <mxCell id="Ue44cO6_rPKiA-cW_K2B-38" value="Zone" style="ellipse;whiteSpace=wrap;html=1;fontSize=20;fillColor=#f8cecc;strokeColor=#b85450;" vertex="1" parent="1">
          <mxGeometry x="400" y="1070" width="120" height="90" as="geometry" />
        </mxCell>
        <mxCell id="Ue44cO6_rPKiA-cW_K2B-46" style="edgeStyle=orthogonalEdgeStyle;curved=1;orthogonalLoop=1;jettySize=auto;html=1;entryX=1;entryY=1;entryDx=0;entryDy=0;endArrow=none;endFill=0;" edge="1" parent="1" source="Ue44cO6_rPKiA-cW_K2B-39" target="Ue44cO6_rPKiA-cW_K2B-38">
          <mxGeometry relative="1" as="geometry" />
        </mxCell>
        <mxCell id="Ue44cO6_rPKiA-cW_K2B-39" value="CocciÃ³n" style="ellipse;whiteSpace=wrap;html=1;fontSize=20;fillColor=#fff2cc;strokeColor=#d6b656;" vertex="1" parent="1">
          <mxGeometry x="545" y="1190" width="120" height="90" as="geometry" />
        </mxCell>
        <mxCell id="Ue44cO6_rPKiA-cW_K2B-45" style="edgeStyle=orthogonalEdgeStyle;curved=1;orthogonalLoop=1;jettySize=auto;html=1;endArrow=none;endFill=0;" edge="1" parent="1" source="Ue44cO6_rPKiA-cW_K2B-40" target="Ue44cO6_rPKiA-cW_K2B-38">
          <mxGeometry relative="1" as="geometry" />
        </mxCell>
        <mxCell id="Ue44cO6_rPKiA-cW_K2B-40" value="PreparaciÃ³n" style="ellipse;whiteSpace=wrap;html=1;fontSize=20;fillColor=#fff2cc;strokeColor=#d6b656;" vertex="1" parent="1">
          <mxGeometry x="392.5" y="1230" width="120" height="90" as="geometry" />
        </mxCell>
        <mxCell id="Ue44cO6_rPKiA-cW_K2B-41" value="Horno" style="ellipse;whiteSpace=wrap;html=1;fontSize=20;fillColor=#dae8fc;strokeColor=#6c8ebf;" vertex="1" parent="1">
          <mxGeometry x="595" y="1280" width="120" height="90" as="geometry" />
        </mxCell>
        <mxCell id="Ue44cO6_rPKiA-cW_K2B-42" value="Grill" style="ellipse;whiteSpace=wrap;html=1;fontSize=20;fillColor=#dae8fc;strokeColor=#6c8ebf;" vertex="1" parent="1">
          <mxGeometry x="760" y="1290" width="120" height="90" as="geometry" />
        </mxCell>
        <mxCell id="Ue44cO6_rPKiA-cW_K2B-43" value="Utensilios" style="ellipse;whiteSpace=wrap;html=1;fontSize=20;fillColor=#dae8fc;strokeColor=#6c8ebf;" vertex="1" parent="1">
          <mxGeometry x="400" y="1380" width="120" height="90" as="geometry" />
        </mxCell>
      </root>
    </mxGraphModel>
  </diagram>
  <diagram id="92EMf9NmiPNLdvf561jD" name="Modelo de dominio">
    <mxGraphModel dx="1422" dy="792" grid="1" gridSize="10" guides="1" tooltips="1" connect="1" arrows="1" fold="1" page="1" pageScale="1" pageWidth="850" pageHeight="1100" math="0" shadow="0">
      <root>
        <mxCell id="0" />
        <mxCell id="1" parent="0" />
      </root>
    </mxGraphModel>
  </diagram>
  <diagram id="ce15cj5fZXZKw39M88a2" name="Eventos de dominios">
    <mxGraphModel dx="1422" dy="792" grid="1" gridSize="10" guides="1" tooltips="1" connect="1" arrows="1" fold="1" page="1" pageScale="1" pageWidth="850" pageHeight="1100" math="0" shadow="0">
      <root>
        <mxCell id="0" />
        <mxCell id="1" parent="0" />
      </root>
    </mxGraphModel>
  </diagram>
</mxfile>
